<svg width="16" height="16" viewBox="0 0 16 16" fill="none" xmlns="http://www.w3.org/2000/svg">
<path d="M14.4999 12.5C14.4999 12.6326 14.4473 12.7598 14.3535 12.8536C14.2597 12.9473 14.1326 13 13.9999 13C13.8673 13 13.7402 12.9473 13.6464 12.8536C13.5526 12.7598 13.4999 12.6326 13.4999 12.5C13.4983 11.0418 12.9183 9.64384 11.8872 8.61275C10.8561 7.58166 9.45813 7.00167 7.99994 7.00001H3.20707L5.35351 9.14645C5.44728 9.24022 5.49996 9.3674 5.49996 9.50001C5.49996 9.63262 5.44728 9.7598 5.35351 9.85358C5.25973 9.94735 5.13255 10 4.99994 10C4.86733 10 4.74015 9.94735 4.64638 9.85358L1.64638 6.85358C1.64282 6.85008 1.63988 6.8462 1.63644 6.84264C1.62863 6.83433 1.62076 6.82601 1.61351 6.8172C1.60782 6.81033 1.60282 6.80301 1.59751 6.79589C1.59313 6.78989 1.58851 6.78414 1.58438 6.77795C1.57907 6.77001 1.57438 6.76183 1.56963 6.7537C1.56613 6.74776 1.56244 6.74208 1.55919 6.73601C1.55482 6.72789 1.55113 6.71964 1.54732 6.71139C1.54419 6.70476 1.54094 6.69833 1.53813 6.69158C1.53488 6.6837 1.53219 6.67564 1.52938 6.66758C1.52669 6.6602 1.52388 6.65289 1.52157 6.64539C1.51907 6.63726 1.51732 6.62914 1.51532 6.62101C1.51338 6.61326 1.51119 6.6057 1.50969 6.59789C1.50782 6.58845 1.50663 6.57889 1.50532 6.56933C1.50438 6.5627 1.50313 6.5562 1.50244 6.54951C1.49919 6.51659 1.49919 6.48343 1.50244 6.45051C1.50307 6.44383 1.50438 6.43733 1.50532 6.4307C1.50663 6.42114 1.50782 6.41158 1.50969 6.40214C1.51119 6.39433 1.51338 6.38676 1.51532 6.37901C1.51732 6.37089 1.51907 6.36276 1.52157 6.35464C1.52388 6.34714 1.52669 6.33983 1.52932 6.33245C1.53219 6.32439 1.53488 6.31633 1.53807 6.30845C1.54094 6.3017 1.54426 6.29526 1.54732 6.28864C1.55113 6.28039 1.55482 6.27214 1.55919 6.26401C1.56244 6.25795 1.56613 6.25226 1.56963 6.24633C1.57444 6.2382 1.57901 6.23001 1.58438 6.22208C1.58851 6.21589 1.59313 6.21014 1.59751 6.20414C1.60282 6.19701 1.60782 6.18976 1.61351 6.18283C1.62076 6.17401 1.62863 6.1657 1.63644 6.15739C1.63988 6.15383 1.64282 6.14995 1.64638 6.14645L4.64638 3.14645C4.74015 3.05268 4.86733 3 4.99994 3C5.13255 3 5.25973 3.05268 5.35351 3.14645C5.44728 3.24022 5.49996 3.3674 5.49996 3.50001C5.49996 3.63262 5.44728 3.7598 5.35351 3.85358L3.20707 6.00001H7.99994C9.72325 6.00196 11.3754 6.68741 12.594 7.90597C13.8125 9.12454 14.498 10.7767 14.4999 12.5Z" fill="#3D3938"/>
</svg>
