<svg width="220" height="159" viewBox="0 0 220 159" fill="none" xmlns="http://www.w3.org/2000/svg">
<path d="M45.708 149.144C43.308 149.144 41.412 148.784 40.02 148.064C38.628 147.344 37.632 146.312 37.032 144.968C36.456 143.6 36.168 141.968 36.168 140.072V127.652L33.756 127.328V124.124H43.44V127.292L40.884 127.688V140C40.884 141.8 41.232 143.144 41.928 144.032C42.648 144.92 43.908 145.364 45.708 145.364C46.668 145.364 47.484 145.184 48.156 144.824C48.828 144.44 49.344 143.852 49.704 143.06C50.064 142.244 50.244 141.212 50.244 139.964V127.616L47.94 127.292V124.124H56.148V127.4L54.024 127.868V140.072C54.024 141.92 53.7 143.528 53.052 144.896C52.428 146.264 51.492 147.32 50.244 148.064C49.02 148.784 47.508 149.144 45.708 149.144ZM62.0852 149L61.7252 146.12L65.8652 145.328V127.904H61.7972L60.2492 131.504H57.4772L58.1612 124.124H78.1412L78.9332 131.468H76.1972L74.6132 127.904H70.5092V145.328L74.6852 146.12L74.3252 149H62.0852ZM81.1016 149L80.5976 145.796L83.1176 145.328V127.652L80.6696 127.4V124.124H90.0296L90.5696 127.472L87.8336 127.904V145.436L90.4976 145.868L90.4616 149H81.1016ZM93.6893 149L93.1853 145.832L95.5253 145.364V127.58L93.2573 127.328V124.124H102.401L102.941 127.4L100.241 127.904V145.22H106.325L107.657 141.656H110.501L109.745 149H93.6893ZM110.948 149L110.48 146.192L112.46 145.544L119.588 124.124H124.052L131.288 145.544L132.944 146.192L132.584 149H123.224V146.3L126.104 145.544L124.808 141.152H117.752L116.384 145.688L119.552 146.264V149H110.948ZM118.868 137.372H123.224L121.316 129.236L118.868 137.372ZM138.744 149.144C137.616 149.144 136.524 148.892 135.468 148.388C134.436 147.884 133.644 147.38 133.092 146.876L135.612 143.24C136.308 143.792 136.908 144.236 137.412 144.572C137.916 144.884 138.324 145.04 138.636 145.04C138.828 145.04 138.972 144.968 139.068 144.824C139.188 144.68 139.248 144.44 139.248 144.104V127.904L136.368 127.472L136.908 124.124H146.412V127.4L143.964 127.652V142.7C143.964 144.092 143.796 145.22 143.46 146.084C143.124 146.924 142.692 147.572 142.164 148.028C141.636 148.46 141.072 148.76 140.472 148.928C139.872 149.072 139.296 149.144 138.744 149.144ZM149.236 149L148.732 145.832L151.072 145.364V127.58L148.804 127.328V124.124H165.22L165.904 131.468H163.096L161.62 127.904H155.788V134.312H161.26V138.092H155.788V145.22H161.872L163.204 141.656H166.048L165.292 149H149.236ZM175.937 149.144C174.545 149.144 173.213 148.976 171.941 148.64C170.669 148.28 169.553 147.908 168.593 147.524L169.313 140.576L172.337 140.828L172.625 144.824C172.937 144.896 173.357 145.004 173.885 145.148C174.437 145.292 175.049 145.364 175.721 145.364C176.489 145.364 177.185 145.268 177.809 145.076C178.457 144.86 178.973 144.536 179.357 144.104C179.765 143.672 179.969 143.108 179.969 142.412C179.969 141.764 179.801 141.236 179.465 140.828C179.129 140.396 178.625 140 177.953 139.64C177.305 139.256 176.465 138.836 175.433 138.38C174.497 137.948 173.633 137.516 172.841 137.084C172.049 136.628 171.353 136.124 170.753 135.572C170.177 135.02 169.721 134.372 169.385 133.628C169.049 132.86 168.881 131.936 168.881 130.856C168.881 129.464 169.253 128.264 169.997 127.256C170.765 126.248 171.785 125.468 173.057 124.916C174.353 124.364 175.769 124.088 177.305 124.088C178.553 124.088 179.765 124.184 180.941 124.376C182.141 124.568 183.209 124.796 184.145 125.06L184.685 131.9H181.661L179.897 128.084C179.585 128.036 179.201 127.988 178.745 127.94C178.289 127.892 177.857 127.868 177.449 127.868C176.609 127.868 175.913 128 175.361 128.264C174.833 128.504 174.437 128.828 174.173 129.236C173.909 129.644 173.777 130.1 173.777 130.604C173.777 131.084 173.921 131.516 174.209 131.9C174.521 132.26 174.917 132.596 175.397 132.908C175.901 133.196 176.429 133.472 176.981 133.736C177.557 133.976 178.109 134.228 178.637 134.492C180.053 135.164 181.217 135.836 182.129 136.508C183.065 137.18 183.761 137.936 184.217 138.776C184.673 139.616 184.901 140.612 184.901 141.764C184.901 143.108 184.637 144.248 184.109 145.184C183.605 146.12 182.921 146.888 182.057 147.488C181.193 148.064 180.221 148.484 179.141 148.748C178.085 149.012 177.017 149.144 175.937 149.144Z" fill="#DF7401"/>
<path d="M105.833 43.5L102.188 46.625L106.875 59.125L119.896 63.8125L121.458 62.7708M86.0417 68.5C87.2987 67.5714 87.3328 66.8649 86.5625 65.375M101.667 80.4792C99.9581 79.7985 98.7342 79.3579 98.0209 80.4792" stroke="#DF7401" stroke-width="3"/>
<path d="M99.0625 79.4375L81.3542 97.6667C87.8569 102.738 92.4762 104.483 101.667 106.521L106.354 98.7083C109.202 99.207 110.798 99.2322 113.646 98.7083L117.812 106C126.874 104.737 131.696 103.037 139.687 97.6667L137.083 88.8125C139.477 87.0634 140.763 85.9084 142.812 83.0833L151.146 86.2083C156.247 78.4411 158.41 73.8435 160 64.8542L151.667 60.6875C152.238 57.3622 152.257 55.5355 151.667 52.3542L160 48.1875C158.239 39.5134 156.351 34.8278 151.146 26.8333L142.292 29.4375C140.294 26.8948 139.094 25.5706 136.562 23.7083L139.687 15.375C131.526 9.98826 126.868 7.8617 118.333 6.52083L114.167 14.3333C110.838 13.8399 109.018 13.8672 105.833 14.3333L101.667 6C92.5504 8.10907 87.8582 10.1285 80.3125 15.375L83.4375 23.7083C80.6267 25.8249 79.4747 27.2511 77.7083 29.9583L68.3333 26.8333C63.4276 35.0311 61.6843 39.7133 60 48.1875L68.3333 52.875C67.5169 55.9259 67.5663 57.6366 68.3333 60.6875L60 64.3333C61.4796 73.8015 63.5171 78.2963 68.8542 85.1667L87.0833 67.4583" stroke="#DF7401" stroke-width="4"/>
<path d="M102.708 46.1042L115.729 33.6042C117.643 32.1772 116.792 31.8393 113.646 31.5208C102.774 31.496 96.0595 32.6845 89.1666 41.9375C81.8352 54.7783 85.3029 60.2084 87.0833 66.9375" stroke="#DF7401" stroke-width="3"/>
<path d="M120.937 63.2916L132.917 51.3125C133.876 50.0051 134.317 50.1441 135 51.3125C135.781 63.298 132.567 69.7385 127.187 74.75C117.315 82.5524 110.934 82.7078 99.0625 79.9583" stroke="#DF7401" stroke-width="3"/>
</svg>
