<svg width="281" height="54" viewBox="0 0 281 54" fill="none" xmlns="http://www.w3.org/2000/svg">
<path d="M77.708 39.144C75.308 39.144 73.412 38.784 72.02 38.064C70.628 37.344 69.632 36.312 69.032 34.968C68.456 33.6 68.168 31.968 68.168 30.072V17.652L65.756 17.328V14.124H75.44V17.292L72.884 17.688V30C72.884 31.8 73.232 33.144 73.928 34.032C74.648 34.92 75.908 35.364 77.708 35.364C78.668 35.364 79.484 35.184 80.156 34.824C80.828 34.44 81.344 33.852 81.704 33.06C82.064 32.244 82.244 31.212 82.244 29.964V17.616L79.94 17.292V14.124H88.148V17.4L86.024 17.868V30.072C86.024 31.92 85.7 33.528 85.052 34.896C84.428 36.264 83.492 37.32 82.244 38.064C81.02 38.784 79.508 39.144 77.708 39.144ZM94.0852 39L93.7252 36.12L97.8652 35.328V17.904H93.7972L92.2492 21.504H89.4772L90.1612 14.124H110.141L110.933 21.468H108.197L106.613 17.904H102.509V35.328L106.685 36.12L106.325 39H94.0852ZM113.102 39L112.598 35.796L115.118 35.328V17.652L112.67 17.4V14.124H122.03L122.57 17.472L119.834 17.904V35.436L122.498 35.868L122.462 39H113.102ZM125.689 39L125.185 35.832L127.525 35.364V17.58L125.257 17.328V14.124H134.401L134.941 17.4L132.241 17.904V35.22H138.325L139.657 31.656H142.501L141.745 39H125.689ZM142.948 39L142.48 36.192L144.46 35.544L151.588 14.124H156.052L163.288 35.544L164.944 36.192L164.584 39H155.224V36.3L158.104 35.544L156.808 31.152H149.752L148.384 35.688L151.552 36.264V39H142.948ZM150.868 27.372H155.224L153.316 19.236L150.868 27.372ZM170.744 39.144C169.616 39.144 168.524 38.892 167.468 38.388C166.436 37.884 165.644 37.38 165.092 36.876L167.612 33.24C168.308 33.792 168.908 34.236 169.412 34.572C169.916 34.884 170.324 35.04 170.636 35.04C170.828 35.04 170.972 34.968 171.068 34.824C171.188 34.68 171.248 34.44 171.248 34.104V17.904L168.368 17.472L168.908 14.124H178.412V17.4L175.964 17.652V32.7C175.964 34.092 175.796 35.22 175.46 36.084C175.124 36.924 174.692 37.572 174.164 38.028C173.636 38.46 173.072 38.76 172.472 38.928C171.872 39.072 171.296 39.144 170.744 39.144ZM181.236 39L180.732 35.832L183.072 35.364V17.58L180.804 17.328V14.124H197.22L197.904 21.468H195.096L193.62 17.904H187.788V24.312H193.26V28.092H187.788V35.22H193.872L195.204 31.656H198.048L197.292 39H181.236ZM207.937 39.144C206.545 39.144 205.213 38.976 203.941 38.64C202.669 38.28 201.553 37.908 200.593 37.524L201.313 30.576L204.337 30.828L204.625 34.824C204.937 34.896 205.357 35.004 205.885 35.148C206.437 35.292 207.049 35.364 207.721 35.364C208.489 35.364 209.185 35.268 209.809 35.076C210.457 34.86 210.973 34.536 211.357 34.104C211.765 33.672 211.969 33.108 211.969 32.412C211.969 31.764 211.801 31.236 211.465 30.828C211.129 30.396 210.625 30 209.953 29.64C209.305 29.256 208.465 28.836 207.433 28.38C206.497 27.948 205.633 27.516 204.841 27.084C204.049 26.628 203.353 26.124 202.753 25.572C202.177 25.02 201.721 24.372 201.385 23.628C201.049 22.86 200.881 21.936 200.881 20.856C200.881 19.464 201.253 18.264 201.997 17.256C202.765 16.248 203.785 15.468 205.057 14.916C206.353 14.364 207.769 14.088 209.305 14.088C210.553 14.088 211.765 14.184 212.941 14.376C214.141 14.568 215.209 14.796 216.145 15.06L216.685 21.9H213.661L211.897 18.084C211.585 18.036 211.201 17.988 210.745 17.94C210.289 17.892 209.857 17.868 209.449 17.868C208.609 17.868 207.913 18 207.361 18.264C206.833 18.504 206.437 18.828 206.173 19.236C205.909 19.644 205.777 20.1 205.777 20.604C205.777 21.084 205.921 21.516 206.209 21.9C206.521 22.26 206.917 22.596 207.397 22.908C207.901 23.196 208.429 23.472 208.981 23.736C209.557 23.976 210.109 24.228 210.637 24.492C212.053 25.164 213.217 25.836 214.129 26.508C215.065 27.18 215.761 27.936 216.217 28.776C216.673 29.616 216.901 30.612 216.901 31.764C216.901 33.108 216.637 34.248 216.109 35.184C215.605 36.12 214.921 36.888 214.057 37.488C213.193 38.064 212.221 38.484 211.141 38.748C210.085 39.012 209.017 39.144 207.937 39.144Z" fill="#DF7401"/>
<path d="M24.9166 20.75L23.0937 22.3125L25.4375 28.5625L31.9479 30.9063L32.7291 30.3854M15.0208 33.25C15.6493 32.7857 15.6664 32.4325 15.2812 31.6875M22.8333 39.2396C21.979 38.8993 21.3671 38.6789 21.0104 39.2396" stroke="#DF7401" stroke-width="3"/>
<path d="M21.5312 38.7188L12.6771 47.8333C15.9284 50.3692 18.2381 51.2414 22.8333 52.2604L25.1771 48.3542C26.6009 48.6035 27.3991 48.6161 28.8229 48.3542L30.9062 52C35.437 51.3683 37.848 50.5183 41.8437 47.8333L40.5417 43.4063C41.7384 42.5317 42.3815 41.9542 43.4062 40.5417L47.5729 42.1042C50.1235 38.2206 51.2048 35.9218 52 31.4271L47.8333 29.3438C48.1191 27.6811 48.1286 26.7678 47.8333 25.1771L52 23.0938C51.1193 18.7567 50.1754 16.4139 47.5729 12.4167L43.1458 13.7188C42.1468 12.4474 41.547 11.7853 40.2812 10.8542L41.8437 6.6875C37.763 3.99413 35.4339 2.93085 31.1667 2.26042L29.0833 6.16667C27.4191 5.91996 26.5088 5.93358 24.9167 6.16667L22.8333 2C18.2752 3.05454 15.9291 4.06424 12.1562 6.6875L13.7187 10.8542C12.3134 11.9124 11.7373 12.6256 10.8542 13.9792L6.16667 12.4167C3.71381 16.5156 2.84215 18.8567 2 23.0938L6.16667 25.4375C5.75843 26.963 5.78313 27.8183 6.16667 29.3438L2 31.1667C2.73982 35.9008 3.75857 38.1481 6.42708 41.5833L15.5417 32.7292" stroke="#DF7401" stroke-width="3"/>
<path d="M23.3541 22.0521L29.8646 15.8021C30.8216 15.0886 30.3959 14.9197 28.8229 14.7604C23.3869 14.748 20.0297 15.3422 16.5833 19.9687C12.9176 26.3891 14.6515 29.1042 15.5416 32.4687" stroke="#DF7401" stroke-width="3"/>
<path d="M32.4687 30.6458L38.4583 24.6562C38.9379 24.0026 39.1583 24.072 39.5 24.6562C39.8906 30.649 38.2836 33.8692 35.5937 36.375C30.6575 40.2762 27.4671 40.3539 21.5312 38.9792" stroke="#DF7401" stroke-width="3"/>
</svg>
