<svg width="54" height="54" viewBox="0 0 54 54" fill="none" xmlns="http://www.w3.org/2000/svg">
<path d="M24.9166 20.75L23.0937 22.3125L25.4375 28.5625L31.9479 30.9063L32.7291 30.3854M15.0208 33.25C15.6493 32.7857 15.6664 32.4325 15.2812 31.6875M22.8333 39.2396C21.979 38.8993 21.3671 38.6789 21.0104 39.2396" stroke="#DF7401" stroke-width="3"/>
<path d="M21.5312 38.7188L12.6771 47.8333C15.9284 50.3692 18.2381 51.2414 22.8333 52.2604L25.1771 48.3542C26.6009 48.6035 27.3991 48.6161 28.8229 48.3542L30.9062 52C35.437 51.3683 37.848 50.5183 41.8437 47.8333L40.5417 43.4063C41.7384 42.5317 42.3815 41.9542 43.4062 40.5417L47.5729 42.1042C50.1235 38.2206 51.2048 35.9218 52 31.4271L47.8333 29.3438C48.1191 27.6811 48.1286 26.7678 47.8333 25.1771L52 23.0938C51.1193 18.7567 50.1754 16.4139 47.5729 12.4167L43.1458 13.7188C42.1468 12.4474 41.547 11.7853 40.2812 10.8542L41.8437 6.6875C37.763 3.99413 35.4339 2.93085 31.1667 2.26042L29.0833 6.16667C27.4191 5.91996 26.5088 5.93358 24.9167 6.16667L22.8333 2C18.2752 3.05454 15.9291 4.06424 12.1562 6.6875L13.7187 10.8542C12.3134 11.9124 11.7373 12.6256 10.8542 13.9792L6.16667 12.4167C3.71381 16.5156 2.84215 18.8567 2 23.0938L6.16667 25.4375C5.75843 26.963 5.78313 27.8183 6.16667 29.3438L2 31.1667C2.73982 35.9008 3.75857 38.1481 6.42708 41.5833L15.5417 32.7292" stroke="#DF7401" stroke-width="3"/>
<path d="M23.3541 22.0521L29.8646 15.8021C30.8216 15.0886 30.3959 14.9197 28.8229 14.7604C23.3869 14.748 20.0297 15.3422 16.5833 19.9687C12.9176 26.3891 14.6515 29.1042 15.5416 32.4687" stroke="#DF7401" stroke-width="3"/>
<path d="M32.4687 30.6458L38.4583 24.6562C38.9379 24.0026 39.1583 24.072 39.5 24.6562C39.8906 30.649 38.2836 33.8692 35.5937 36.375C30.6575 40.2762 27.4671 40.3539 21.5312 38.9792" stroke="#DF7401" stroke-width="3"/>
</svg>
